<svg  width="48" height="48" viewBox="0 0 48 48" xmlns="http://www.w3.org/2000/svg" version="1.1" xmlns:xlink="http://www.w3.org/1999/xlink" xmlns:svgjs="http://svgjs.dev/svgjs" width="1500" height="939" viewBox="0 0 1500 939"><g transform="matrix(1,0,0,1,-0.9090909090908781,-1.5145161290323017)"><svg viewBox="0 0 396 248" data-background-color="#ffffff" preserveAspectRatio="xMidYMid meet" height="939" width="1500" xmlns="http://www.w3.org/2000/svg" xmlns:xlink="http://www.w3.org/1999/xlink"><g id="tight-bounds" transform="matrix(1,0,0,1,0.2400000000000091,0.4000000000000057)"><svg viewBox="0 0 395.52 247.2" height="247.2" width="395.52"><g><svg></svg></g><g><svg viewBox="0 0 395.52 247.2" height="247.2" width="395.52"><g transform="matrix(1,0,0,1,75.54432,55.19372340646191)"><svg viewBox="0 0 244.43135999999998 136.81255318707616" height="136.81255318707616" width="244.43135999999998"><g><svg viewBox="0 0 244.43135999999998 136.81255318707616" height="136.81255318707616" width="244.43135999999998"><g><svg viewBox="0 0 244.43135999999998 136.81255318707616" height="136.81255318707616" width="244.43135999999998"><g><svg viewBox="0 0 244.43135999999998 136.81255318707616" height="136.81255318707616" width="244.43135999999998"><g id="textblocktransform"><svg viewBox="0 0 244.43135999999998 136.81255318707616" height="136.81255318707616" width="244.43135999999998" id="textblock"><g><svg viewBox="0 0 244.43135999999998 94.6334352912079" height="94.6334352912079" width="244.43135999999998"><g transform="matrix(1,0,0,1,0,0)"><svg width="244.43135999999998" viewBox="1.15 -36.65 95.05 36.8" height="94.6334352912079" data-palette-color="#1e55b3"><path d="M22.75-0.1L13.8-0.1Q11.35-0.1 9.13-0.55 6.9-1 5.23-2.27 3.55-3.55 2.58-5.98 1.6-8.4 1.6-12.35L1.6-12.35Q1.6-15.9 2.55-18.45 3.5-21 4.83-22.5 6.15-24 7.25-24.35L7.25-24.35 7-25.3 6.15-25.3Q3.85-25.3 2.53-26.78 1.2-28.25 1.15-30.8L1.15-30.8Q1.1-33.3 2.48-34.8 3.85-36.3 6.15-36.3L6.15-36.3 24.1-36.3Q29.45-36.3 29.45-31.3L29.45-31.3Q29.45-29.05 28.15-27.7 26.85-26.35 24.1-26.35L24.1-26.35 13.75-26.35Q11.9-26.35 11.9-24.2L11.9-24.2 11.9-20.45Q14.4-21 17.13-21.75 19.85-22.5 22.3-22.5L22.3-22.5Q24.65-22.5 25.83-21.48 27-20.45 27-18.7L27-18.7Q27-16.9 25.83-15.88 24.65-14.85 22.3-14.8L22.3-14.8Q19.85-14.75 17.1-15.5 14.35-16.25 11.85-16.8L11.85-16.8 11.85-10.25Q11.85-9.3 12.38-8.93 12.9-8.55 14.05-9.2L14.05-9.2Q16.55-10.65 18.95-11.53 21.35-12.4 23.65-12.4L23.65-12.4Q26.9-12.4 28.58-10.7 30.25-9 30.25-6.25L30.25-6.25Q30.25-3.3 28.48-1.7 26.7-0.1 22.75-0.1L22.75-0.1ZM47.7 0.15L47.7 0.15Q44.9 0.15 42.07-0.43 39.25-1 36.87-2.13 34.5-3.25 33.05-4.88 31.6-6.5 31.6-8.65L31.6-8.65Q31.6-11.4 33.35-13.05 35.1-14.7 37.45-14.6L37.45-14.6Q39.3-14.55 41.15-13.83 43-13.1 44.92-12.4 46.85-11.7 48.8-11.7L48.8-11.7Q50.75-11.7 51.5-12.2 52.25-12.7 52.25-13.55L52.25-13.55Q52.25-14.55 51.2-15.2 50.15-15.85 48.55-16.2L48.55-16.2 46.1-16.8Q42.3-17.7 39.3-18.82 36.3-19.95 34.57-21.83 32.85-23.7 32.85-26.85L32.85-26.85Q32.85-30.3 34.75-32.48 36.65-34.65 39.9-35.65 43.15-36.65 47.15-36.65L47.15-36.65Q51.25-36.65 54.35-35.8 57.45-34.95 59.17-33.35 60.9-31.75 60.9-29.45L60.9-29.45Q60.9-27 59.57-25.63 58.25-24.25 56.05-24.25L56.05-24.25Q54.6-24.25 53.02-24.75 51.45-25.25 49.72-25.73 48-26.2 46.05-26.2L46.05-26.2Q44.3-26.2 43.4-25.68 42.5-25.15 42.5-24.3L42.5-24.3Q42.5-23.25 43.7-22.75 44.9-22.25 47.65-21.55L47.65-21.55 50.45-20.9Q53.9-20.05 56.5-18.85 59.1-17.65 60.55-15.7 62-13.75 62-10.6L62-10.6Q62-6.8 60.2-4.42 58.4-2.05 55.2-0.95 52 0.15 47.7 0.15ZM69-25.3L69-25.3Q66.5-25.3 64.92-26.75 63.35-28.2 63.35-30.75L63.35-30.75Q63.35-33.25 64.77-34.77 66.2-36.3 69-36.3L69-36.3 90.55-36.3Q93.35-36.3 94.77-34.77 96.2-33.25 96.2-30.75L96.2-30.75Q96.2-28.2 94.62-26.75 93.05-25.3 90.55-25.3L90.55-25.3Q88.85-25.3 87.82-25.68 86.8-26.05 86.15-26.58 85.5-27.1 84.9-27.48 84.3-27.85 83.4-27.85L83.4-27.85 82.95-26.95Q83.15-26.5 83.65-25.68 84.15-24.85 84.6-23.33 85.05-21.8 85.05-19.2L85.05-19.2 85.05-4.75Q85.05-2.7 83.52-1.35 82 0 79.8 0L79.8 0Q77.55 0 76.02-1.35 74.5-2.7 74.5-4.75L74.5-4.75 74.5-19.2Q74.5-21.8 74.95-23.33 75.4-24.85 75.92-25.68 76.45-26.5 76.65-26.95L76.65-26.95 76.15-27.85Q75.25-27.85 74.65-27.48 74.05-27.1 73.4-26.58 72.75-26.05 71.75-25.68 70.75-25.3 69-25.3Z" opacity="1" transform="matrix(1,0,0,1,0,0)" fill="#1e55b3" class="wordmark-text-0" data-fill-palette-color="primary" id="text-0"></path></svg></g></svg></g><g transform="matrix(1,0,0,1,0,116.9741181610151)"><svg viewBox="0 0 244.43135999999998 19.838435026061056" height="19.838435026061056" width="244.43135999999998"><g transform="matrix(1,0,0,1,0,0)"><svg width="244.43135999999998" viewBox="4.45 -33.5 537.14 43.6" height="19.838435026061056" data-palette-color="#ff585f"><path d="M4.45-2.2L4.45-18.3 8.5-18.3 8.5-0.4Q8.3-0.35 7.75-0.18 7.2 0 6.65 0L6.65 0Q5.65 0 5.05-0.63 4.45-1.25 4.45-2.2L4.45-2.2ZM8.5-30L8.5-12.4 4.45-12.45 4.45-28.2Q4.45-29.2 5.05-29.8 5.65-30.4 6.65-30.4L6.65-30.4Q7.2-30.4 7.75-30.25 8.3-30.1 8.5-30L8.5-30ZM20.6-13.9L6.65-13.9 6.65-17.3 21.7-17.3Q21.85-17.1 22-16.65 22.15-16.2 22.15-15.7L22.15-15.7Q22.15-14.9 21.75-14.4 21.35-13.9 20.6-13.9L20.6-13.9ZM22.4 0L6.65 0 6.65-3.4 23.5-3.4Q23.65-3.2 23.8-2.78 23.95-2.35 23.95-1.8L23.95-1.8Q23.95-1 23.55-0.5 23.15 0 22.4 0L22.4 0ZM22.15-26.95L6.65-26.95 6.65-30.4 23.25-30.4Q23.4-30.2 23.55-29.75 23.7-29.3 23.7-28.8L23.7-28.8Q23.7-28 23.3-27.48 22.9-26.95 22.15-26.95L22.15-26.95ZM48.95-16L48.95-16 48.95-10.25 44.95-10.25 44.95-15.7Q44.95-18.15 43.52-19.3 42.1-20.45 39.75-20.45L39.75-20.45Q38.2-20.45 36.75-19.95 35.3-19.45 34.3-18.8L34.3-18.8 34.3-10.25 30.3-10.25 30.3-18.6Q30.3-19.6 30.72-20.3 31.15-21 32.2-21.65L32.2-21.65Q33.55-22.5 35.62-23.13 37.7-23.75 39.8-23.75L39.8-23.75Q42.35-23.75 44.3-22.98 46.25-22.2 47.2-20.85L47.2-20.85Q47.5-20.55 47.7-20.3 47.9-20.05 48.1-19.65L48.1-19.65Q48.45-19.05 48.7-18.1 48.95-17.15 48.95-16ZM63.6-15.9L63.6-15.9 63.6-10.25 59.6-10.25 59.6-15.7Q59.6-18.15 58.2-19.3 56.8-20.45 54.45-20.45L54.45-20.45Q52.7-20.45 51.07-19.73 49.45-19 48.15-17.65L48.15-17.65 46.55-20.55Q47.85-21.85 49.95-22.8 52.05-23.75 54.75-23.75L54.75-23.75Q57.45-23.75 59.42-22.9 61.4-22.05 62.5-20.3 63.6-18.55 63.6-15.9ZM30.3-1.55L30.3-12.9 34.3-12.9 34.3-0.1Q34.05 0 33.55 0.13 33.05 0.25 32.45 0.25L32.45 0.25Q31.4 0.25 30.85-0.18 30.3-0.6 30.3-1.55L30.3-1.55ZM44.95-1.55L44.95-12.9 48.95-12.9 48.95-0.1Q48.7 0 48.17 0.13 47.65 0.25 47.1 0.25L47.1 0.25Q46 0.25 45.47-0.18 44.95-0.6 44.95-1.55L44.95-1.55ZM59.6-1.55L59.6-12.9 63.6-12.9 63.6-0.1Q63.35 0 62.82 0.13 62.3 0.25 61.75 0.25L61.75 0.25Q60.65 0.25 60.12-0.18 59.6-0.6 59.6-1.55L59.6-1.55ZM89.34-11.35L72.55-9 72.34-12.15 87.44-14.2Q87.25-16.95 85.55-18.73 83.84-20.5 80.84-20.5L80.84-20.5Q77.75-20.5 75.72-18.28 73.69-16.05 73.69-11.9L73.69-11.9 73.69-10.8Q74.05-6.8 76.32-4.73 78.59-2.65 82.55-2.65L82.55-2.65Q84.64-2.65 86.34-3.35 88.05-4.05 89.05-4.85L89.05-4.85Q89.59-4.5 89.92-4.03 90.25-3.55 90.25-2.95L90.25-2.95Q90.25-2 89.17-1.18 88.09-0.35 86.32 0.15 84.55 0.65 82.34 0.65L82.34 0.65Q78.5 0.65 75.67-0.75 72.84-2.15 71.32-4.93 69.8-7.7 69.8-11.7L69.8-11.7Q69.8-14.55 70.62-16.78 71.44-19 72.92-20.55 74.39-22.1 76.44-22.93 78.5-23.75 80.89-23.75L80.89-23.75Q83.94-23.75 86.27-22.45 88.59-21.15 89.92-18.82 91.25-16.5 91.25-13.5L91.25-13.5Q91.25-12.4 90.75-11.93 90.25-11.45 89.34-11.35L89.34-11.35ZM101.04-18.8L101.04-18.8 101.04-10.9 97.04-10.9 97.04-18.5Q97.04-19.65 97.47-20.33 97.89-21 98.89-21.65L98.89-21.65Q100.19-22.5 102.44-23.13 104.69-23.75 107.44-23.75L107.44-23.75Q111.44-23.75 111.44-21.75L111.44-21.75Q111.44-21.25 111.29-20.83 111.14-20.4 110.89-20.1L110.89-20.1Q110.39-20.2 109.59-20.3 108.79-20.4 107.99-20.4L107.99-20.4Q105.69-20.4 103.94-19.93 102.19-19.45 101.04-18.8ZM97.04-1.55L97.04-13.2 101.04-12.6 101.04-0.1Q100.79 0 100.29 0.13 99.79 0.25 99.19 0.25L99.19 0.25Q98.14 0.25 97.59-0.18 97.04-0.6 97.04-1.55L97.04-1.55ZM125.74-0.7L125.74-0.7Q122.84-0.7 120.39-1.83 117.94-2.95 116.44-5.5 114.94-8.05 114.94-12.25L114.94-12.25Q114.94-16.05 116.42-18.6 117.89-21.15 120.49-22.45 123.09-23.75 126.44-23.75L126.44-23.75Q128.74-23.75 130.67-23.18 132.59-22.6 133.89-21.75L133.89-21.75Q134.64-21.25 135.12-20.63 135.59-20 135.59-19.1L135.59-19.1 135.59-3.65 131.59-3.65 131.59-19.05Q130.74-19.6 129.47-20.03 128.19-20.45 126.44-20.45L126.44-20.45Q123.09-20.45 121.04-18.4 118.99-16.35 118.99-12.3L118.99-12.3Q118.99-7.8 121.07-5.9 123.14-4 126.19-4L126.19-4Q128.39-4 129.74-4.75 131.09-5.5 131.89-6.4L131.89-6.4 132.09-2.85Q131.34-2.05 129.72-1.38 128.09-0.7 125.74-0.7ZM131.59 0.75L131.59 0.75 131.59-4.5 135.59-4.5 135.59 1Q135.59 4.3 134.17 6.3 132.74 8.3 130.27 9.2 127.79 10.1 124.69 10.1L124.69 10.1Q122.19 10.1 120.39 9.55 118.59 9 117.94 8.65L117.94 8.65Q116.44 7.8 116.44 6.5L116.44 6.5Q116.44 5.8 116.77 5.33 117.09 4.85 117.59 4.6L117.59 4.6Q118.64 5.4 120.57 6.08 122.49 6.75 124.69 6.75L124.69 6.75Q128.04 6.75 129.82 5.3 131.59 3.85 131.59 0.75ZM142.64-30.4L142.64-30.4Q142.64-31.45 143.39-32.18 144.14-32.9 145.24-32.9L145.24-32.9Q146.39-32.9 147.09-32.18 147.79-31.45 147.79-30.4L147.79-30.4Q147.79-29.35 147.09-28.63 146.39-27.9 145.24-27.9L145.24-27.9Q144.14-27.9 143.39-28.63 142.64-29.35 142.64-30.4ZM143.24-1.55L143.24-13.2 147.24-13.2 147.24-0.1Q146.99 0 146.49 0.13 145.99 0.25 145.39 0.25L145.39 0.25Q144.34 0.25 143.79-0.18 143.24-0.6 143.24-1.55L143.24-1.55ZM147.24-21.5L147.24-11.25 143.24-11.25 143.24-23Q143.49-23.1 144.01-23.23 144.54-23.35 145.14-23.35L145.14-23.35Q146.19-23.35 146.71-22.93 147.24-22.5 147.24-21.5L147.24-21.5ZM175.04-15.25L175.04-15.25 175.04-10.15 171.04-10.15 171.04-15.05Q171.04-17.85 169.46-19.15 167.89-20.45 165.24-20.45L165.24-20.45Q163.24-20.45 161.69-19.95 160.14-19.45 159.04-18.8L159.04-18.8 159.04-10.15 155.04-10.15 155.04-18.6Q155.04-19.65 155.46-20.33 155.89-21 156.94-21.65L156.94-21.65Q158.24-22.4 160.39-23.08 162.54-23.75 165.24-23.75L165.24-23.75Q169.79-23.75 172.41-21.68 175.04-19.6 175.04-15.25ZM155.04-1.55L155.04-12.9 159.04-12.9 159.04-0.1Q158.79 0 158.29 0.13 157.79 0.25 157.19 0.25L157.19 0.25Q156.14 0.25 155.59-0.18 155.04-0.6 155.04-1.55L155.04-1.55ZM171.04-1.55L171.04-12.9 175.04-12.9 175.04-0.1Q174.79 0 174.26 0.13 173.74 0.25 173.19 0.25L173.19 0.25Q172.09 0.25 171.56-0.18 171.04-0.6 171.04-1.55L171.04-1.55ZM192.13-0.7L192.13-0.7Q189.23-0.7 186.78-1.83 184.33-2.95 182.83-5.5 181.33-8.05 181.33-12.25L181.33-12.25Q181.33-16.05 182.81-18.6 184.28-21.15 186.88-22.45 189.48-23.75 192.83-23.75L192.83-23.75Q195.13-23.75 197.06-23.18 198.98-22.6 200.28-21.75L200.28-21.75Q201.03-21.25 201.51-20.63 201.98-20 201.98-19.1L201.98-19.1 201.98-3.65 197.98-3.65 197.98-19.05Q197.13-19.6 195.86-20.03 194.58-20.45 192.83-20.45L192.83-20.45Q189.48-20.45 187.43-18.4 185.38-16.35 185.38-12.3L185.38-12.3Q185.38-7.8 187.46-5.9 189.53-4 192.58-4L192.58-4Q194.78-4 196.13-4.75 197.48-5.5 198.28-6.4L198.28-6.4 198.48-2.85Q197.73-2.05 196.11-1.38 194.48-0.7 192.13-0.7ZM197.98 0.75L197.98 0.75 197.98-4.5 201.98-4.5 201.98 1Q201.98 4.3 200.56 6.3 199.13 8.3 196.66 9.2 194.18 10.1 191.08 10.1L191.08 10.1Q188.58 10.1 186.78 9.55 184.98 9 184.33 8.65L184.33 8.65Q182.83 7.8 182.83 6.5L182.83 6.5Q182.83 5.8 183.16 5.33 183.48 4.85 183.98 4.6L183.98 4.6Q185.03 5.4 186.96 6.08 188.88 6.75 191.08 6.75L191.08 6.75Q194.43 6.75 196.21 5.3 197.98 3.85 197.98 0.75ZM228.48-2.75L228.48-2.75Q231.83-2.75 233.55-4.28 235.28-5.8 235.28-8.2L235.28-8.2Q235.28-10.25 233.95-11.6 232.63-12.95 229.78-13.75L229.78-13.75 225.43-15.05Q223.33-15.7 221.78-16.73 220.23-17.75 219.4-19.28 218.58-20.8 218.58-22.85L218.58-22.85Q218.58-26.7 221.38-28.88 224.18-31.05 228.83-31.05L228.83-31.05Q231.53-31.05 233.65-30.48 235.78-29.9 237-29 238.23-28.1 238.23-27.1L238.23-27.1Q238.23-26.45 237.88-25.93 237.53-25.4 236.98-25.1L236.98-25.1Q235.73-26.1 233.6-26.85 231.48-27.6 228.98-27.6L228.98-27.6Q226.08-27.6 224.38-26.33 222.68-25.05 222.68-22.85L222.68-22.85Q222.68-21.1 223.9-20 225.13-18.9 227.88-18.1L227.88-18.1 230.93-17.2Q234.88-16.1 237.15-14 239.43-11.9 239.43-8.2L239.43-8.2Q239.43-4.25 236.55-1.8 233.68 0.65 228.48 0.65L228.48 0.65Q225.43 0.65 223.15-0.03 220.88-0.7 219.6-1.73 218.33-2.75 218.33-3.75L218.33-3.75Q218.33-4.6 218.85-5.18 219.38-5.75 220.08-6L220.08-6Q221.23-4.9 223.33-3.83 225.43-2.75 228.48-2.75ZM256.23-20.4L256.23-20.4Q252.83-20.4 250.58-18.1 248.33-15.8 248.33-11.5L248.33-11.5Q248.33-7.25 250.5-4.95 252.68-2.65 256.23-2.65L256.23-2.65Q258.33-2.65 259.73-3.23 261.13-3.8 262.23-4.55L262.23-4.55Q262.78-4.25 263.13-3.8 263.48-3.35 263.48-2.7L263.48-2.7Q263.48-1.3 261.4-0.33 259.33 0.65 256.23 0.65L256.23 0.65Q252.78 0.65 250.05-0.68 247.33-2 245.78-4.7 244.23-7.4 244.23-11.5L244.23-11.5Q244.23-15.55 245.83-18.28 247.43-21 250.15-22.38 252.88-23.75 256.13-23.75L256.13-23.75Q259.23-23.75 261.25-22.7 263.28-21.65 263.28-20.3L263.28-20.3Q263.28-19.7 262.93-19.25 262.58-18.8 262.03-18.55L262.03-18.55Q260.93-19.3 259.6-19.85 258.28-20.4 256.23-20.4ZM289.47-14.65L289.47-9.95 285.47-9.95 285.47-14.55Q285.47-17.55 283.8-19 282.12-20.45 279.47-20.45L279.47-20.45Q277.52-20.45 275.85-19.7 274.17-18.95 273.02-17.9L273.02-17.9 272.27-21.15Q273.47-22 275.45-22.88 277.42-23.75 280.02-23.75L280.02-23.75Q284.17-23.75 286.82-21.5 289.47-19.25 289.47-14.65L289.47-14.65ZM269.52-1.55L269.52-13.2 273.52-13.2 273.52-0.1Q273.27 0 272.77 0.13 272.27 0.25 271.67 0.25L271.67 0.25Q270.62 0.25 270.07-0.18 269.52-0.6 269.52-1.55L269.52-1.55ZM285.47-1.55L285.47-13.15 289.47-13.1 289.47-0.1Q289.22 0 288.7 0.13 288.17 0.25 287.62 0.25L287.62 0.25Q286.52 0.25 286-0.18 285.47-0.6 285.47-1.55L285.47-1.55ZM273.52-30.95L273.52-11.25 269.52-11.25 269.52-32.4Q269.77-32.5 270.3-32.63 270.82-32.75 271.42-32.75L271.42-32.75Q272.47-32.75 273-32.33 273.52-31.9 273.52-30.95L273.52-30.95ZM318.42-11.55L318.42-11.55Q318.42-7.85 317.02-5.1 315.62-2.35 313.07-0.85 310.52 0.65 307.07 0.65L307.07 0.65Q303.62 0.65 301.05-0.85 298.47-2.35 297.07-5.1 295.67-7.85 295.67-11.55L295.67-11.55Q295.67-15.3 297.1-18.03 298.52-20.75 301.1-22.25 303.67-23.75 307.07-23.75L307.07-23.75Q310.47-23.75 313.02-22.25 315.57-20.75 317-18.03 318.42-15.3 318.42-11.55ZM307.07-20.45L307.07-20.45Q303.72-20.45 301.75-18.07 299.77-15.7 299.77-11.55L299.77-11.55Q299.77-7.35 301.7-5 303.62-2.65 307.07-2.65L307.07-2.65Q310.47-2.65 312.4-5.03 314.32-7.4 314.32-11.55L314.32-11.55Q314.32-15.7 312.4-18.07 310.47-20.45 307.07-20.45ZM325.02-1.55L325.02-13.2 329.02-12.6 329.02-0.1Q328.77 0 328.27 0.13 327.77 0.25 327.17 0.25L327.17 0.25Q326.12 0.25 325.57-0.18 325.02-0.6 325.02-1.55L325.02-1.55ZM329.02-30.95L329.02-10.7 325.02-11.25 325.02-32.4Q325.27-32.5 325.79-32.63 326.32-32.75 326.87-32.75L326.87-32.75Q327.97-32.75 328.49-32.33 329.02-31.9 329.02-30.95L329.02-30.95ZM345.17 0.7L345.17 0.7Q340.47 0.7 337.89-1.15 335.31-3 335.31-6.5L335.31-6.5Q335.31-9.75 337.49-11.48 339.67-13.2 343.52-13.55L343.52-13.55 350.62-14.25 350.62-15.65Q350.62-18.15 349.12-19.3 347.62-20.45 345.06-20.45L345.06-20.45Q343.02-20.45 341.14-19.85 339.27-19.25 337.81-18.5L337.81-18.5Q337.42-18.85 337.09-19.33 336.77-19.8 336.77-20.3L336.77-20.3Q336.77-21.6 338.22-22.3L338.22-22.3Q339.56-23 341.34-23.38 343.12-23.75 345.12-23.75L345.12-23.75Q349.47-23.75 352.02-21.8 354.56-19.85 354.56-15.65L354.56-15.65 354.56-3.8Q354.56-2.7 354.14-2.13 353.72-1.55 352.87-1.05L352.87-1.05Q351.67-0.4 349.67 0.15 347.67 0.7 345.17 0.7ZM345.17-2.6L345.17-2.6Q347.27-2.6 348.64-3.03 350.02-3.45 350.62-3.85L350.62-3.85 350.62-11.1 344.42-10.45Q341.81-10.25 340.56-9.3 339.31-8.35 339.31-6.55L339.31-6.55Q339.31-4.7 340.79-3.65 342.27-2.6 345.17-2.6ZM365.86-18.8L365.86-18.8 365.86-10.9 361.86-10.9 361.86-18.5Q361.86-19.65 362.29-20.33 362.71-21 363.71-21.65L363.71-21.65Q365.01-22.5 367.26-23.13 369.51-23.75 372.26-23.75L372.26-23.75Q376.26-23.75 376.26-21.75L376.26-21.75Q376.26-21.25 376.11-20.83 375.96-20.4 375.71-20.1L375.71-20.1Q375.21-20.2 374.41-20.3 373.61-20.4 372.81-20.4L372.81-20.4Q370.51-20.4 368.76-19.93 367.01-19.45 365.86-18.8ZM361.86-1.55L361.86-13.2 365.86-12.6 365.86-0.1Q365.61 0 365.11 0.13 364.61 0.25 364.01 0.25L364.01 0.25Q362.96 0.25 362.41-0.18 361.86-0.6 361.86-1.55L361.86-1.55ZM412.41-11.55L412.41-11.55Q412.41-7.85 411.01-5.1 409.61-2.35 407.06-0.85 404.51 0.65 401.06 0.65L401.06 0.65Q397.61 0.65 395.03-0.85 392.46-2.35 391.06-5.1 389.66-7.85 389.66-11.55L389.66-11.55Q389.66-15.3 391.08-18.03 392.51-20.75 395.08-22.25 397.66-23.75 401.06-23.75L401.06-23.75Q404.46-23.75 407.01-22.25 409.56-20.75 410.98-18.03 412.41-15.3 412.41-11.55ZM401.06-20.45L401.06-20.45Q397.71-20.45 395.73-18.07 393.76-15.7 393.76-11.55L393.76-11.55Q393.76-7.35 395.68-5 397.61-2.65 401.06-2.65L401.06-2.65Q404.46-2.65 406.38-5.03 408.31-7.4 408.31-11.55L408.31-11.55Q408.31-15.7 406.38-18.07 404.46-20.45 401.06-20.45ZM431.46-18.55L421.96-18.55 421.96-21.8 432.56-21.8Q432.71-21.6 432.86-21.18 433-20.75 433-20.2L433-20.2Q433-19.4 432.61-18.98 432.21-18.55 431.46-18.55L431.46-18.55ZM422.66-24.95L422.66-24.95 422.66-19.1 418.71-19.1 418.71-25.15Q418.71-28.1 419.78-29.93 420.86-31.75 422.88-32.63 424.91-33.5 427.71-33.5L427.71-33.5Q430.56-33.5 432.18-32.75 433.81-32 433.81-30.9L433.81-30.9Q433.81-30.35 433.58-29.9 433.36-29.45 432.96-29.05L432.96-29.05Q432.06-29.55 430.71-29.88 429.36-30.2 428.11-30.2L428.11-30.2Q425.06-30.2 423.86-28.95 422.66-27.7 422.66-24.95ZM418.71-1.55L418.71-21.3 422.71-21.3 422.71-0.1Q422.46 0 421.96 0.13 421.46 0.25 420.86 0.25L420.86 0.25Q419.81 0.25 419.25-0.18 418.71-0.6 418.71-1.55L418.71-1.55ZM468.15-26.95L457.85-26.95 457.6-30.4 469.25-30.4Q469.4-30.2 469.55-29.75 469.7-29.3 469.7-28.8L469.7-28.8Q469.7-28 469.3-27.48 468.9-26.95 468.15-26.95L468.15-26.95ZM447.6-30.4L457.95-30.4 458.2-26.95 446.5-26.95Q446.35-27.2 446.2-27.65 446.05-28.1 446.05-28.6L446.05-28.6Q446.05-29.45 446.45-29.93 446.85-30.4 447.6-30.4L447.6-30.4ZM455.85-1.6L455.85-28.3 459.9-28.3 459.9-0.1Q459.65 0 459.13 0.13 458.6 0.25 458.05 0.25L458.05 0.25Q456.95 0.25 456.4-0.2 455.85-0.65 455.85-1.6L455.85-1.6ZM494.75-14.65L494.75-9.95 490.75-9.95 490.75-14.55Q490.75-17.55 489.07-19 487.4-20.45 484.75-20.45L484.75-20.45Q482.8-20.45 481.12-19.7 479.45-18.95 478.3-17.9L478.3-17.9 477.55-21.15Q478.75-22 480.72-22.88 482.7-23.75 485.3-23.75L485.3-23.75Q489.45-23.75 492.1-21.5 494.75-19.25 494.75-14.65L494.75-14.65ZM474.8-1.55L474.8-13.2 478.8-13.2 478.8-0.1Q478.55 0 478.05 0.13 477.55 0.25 476.95 0.25L476.95 0.25Q475.9 0.25 475.35-0.18 474.8-0.6 474.8-1.55L474.8-1.55ZM490.75-1.55L490.75-13.15 494.75-13.1 494.75-0.1Q494.5 0 493.97 0.13 493.45 0.25 492.9 0.25L492.9 0.25Q491.8 0.25 491.27-0.18 490.75-0.6 490.75-1.55L490.75-1.55ZM478.8-30.95L478.8-11.25 474.8-11.25 474.8-32.4Q475.05-32.5 475.57-32.63 476.1-32.75 476.7-32.75L476.7-32.75Q477.75-32.75 478.27-32.33 478.8-31.9 478.8-30.95L478.8-30.95ZM510.5 0.7L510.5 0.7Q505.8 0.7 503.22-1.15 500.64-3 500.64-6.5L500.64-6.5Q500.64-9.75 502.82-11.48 505-13.2 508.85-13.55L508.85-13.55 515.95-14.25 515.95-15.65Q515.95-18.15 514.45-19.3 512.95-20.45 510.39-20.45L510.39-20.45Q508.35-20.45 506.47-19.85 504.6-19.25 503.14-18.5L503.14-18.5Q502.75-18.85 502.42-19.33 502.1-19.8 502.1-20.3L502.1-20.3Q502.1-21.6 503.55-22.3L503.55-22.3Q504.89-23 506.67-23.38 508.44-23.75 510.44-23.75L510.44-23.75Q514.79-23.75 517.35-21.8 519.89-19.85 519.89-15.65L519.89-15.65 519.89-3.8Q519.89-2.7 519.47-2.13 519.04-1.55 518.2-1.05L518.2-1.05Q517-0.4 515 0.15 513 0.7 510.5 0.7ZM510.5-2.6L510.5-2.6Q512.6-2.6 513.97-3.03 515.35-3.45 515.95-3.85L515.95-3.85 515.95-11.1 509.75-10.45Q507.14-10.25 505.89-9.3 504.64-8.35 504.64-6.55L504.64-6.55Q504.64-4.7 506.12-3.65 507.6-2.6 510.5-2.6ZM531.19-18.8L531.19-18.8 531.19-10.9 527.19-10.9 527.19-18.5Q527.19-19.65 527.62-20.33 528.04-21 529.04-21.65L529.04-21.65Q530.34-22.5 532.59-23.13 534.84-23.75 537.59-23.75L537.59-23.75Q541.59-23.75 541.59-21.75L541.59-21.75Q541.59-21.25 541.44-20.83 541.29-20.4 541.04-20.1L541.04-20.1Q540.54-20.2 539.74-20.3 538.94-20.4 538.14-20.4L538.14-20.4Q535.84-20.4 534.09-19.93 532.34-19.45 531.19-18.8ZM527.19-1.55L527.19-13.2 531.19-12.6 531.19-0.1Q530.94 0 530.44 0.13 529.94 0.25 529.34 0.25L529.34 0.25Q528.29 0.25 527.74-0.18 527.19-0.6 527.19-1.55L527.19-1.55Z" opacity="1" transform="matrix(1,0,0,1,0,0)" fill="#ff585f" class="slogan-text-1" data-fill-palette-color="secondary" id="text-1"></path></svg></g></svg></g></svg></g></svg></g></svg></g></svg></g></svg></g><g><path d="M0 123.6c0-68.262 55.338-123.6 123.6-123.6 37.95 0 71.906 17.104 94.579 44.023l-5.651 0c-21.85-24.401-53.596-39.756-88.928-39.756-65.906 0-119.333 53.427-119.333 119.333 0 65.906 53.427 119.333 119.333 119.333 35.332 0 67.078-15.355 88.928-39.756h5.651c-22.673 26.92-56.629 44.023-94.579 44.023-68.262 0-123.6-55.338-123.6-123.6z" fill="#1e55b3" stroke="transparent" data-fill-palette-color="tertiary"></path></g></svg></g><defs></defs></svg><rect width="395.52" height="247.2" fill="none" stroke="none" visibility="hidden"></rect></g></svg></g></svg>